<?xml version="1.0" encoding="UTF-8"?><svg id="Ebene_1" xmlns="http://www.w3.org/2000/svg" viewBox="0 0 226.77 156.25"><path d="m29.83,28l21.6-8.29.6.4c-2.83,14.78-6.47,29.44-9.01,44.27-.16.94-1.02,3.73.05,3.82,1.9.16,10.97-6.34,12.74-7.92,9.04-8.09,18.4-26.91,12.72-38.73-9.17-19.1-45.27-.1-51.91,14.02-2.28,4.86-3.2,12.33,1.39,16.14,1.27,1.06,5.35,2.18,2.75,3.55C10.33,60.77-.76,54.49.04,42.3,1.66,17.86,38.51,1.36,59.69.1c25.33-1.51,35.65,14.2,26.87,37.59-6.58,17.52-20.5,30.18-37.36,37.69-2.19.98-6.38,2.07-8.06,3.2-.4.27-.74.44-.95.92-1.52,9.6-4.3,19.25-5.75,28.82-.7,4.63-1.68,11.01,2.33,14.4,2.44,2.07,4.78,1,6.97,2.94L2.93,145.07l-.69-.69.16-.81c7.19-7.71,11.14-17.28,13.61-27.41,6.51-26.7,10.59-54.67,16.22-81.61-.24-1.4-.37-2.54-1.03-3.82-.5-.95-1.58-1.64-1.36-2.74"/><path d="m131.1,7.36l.29,1.18-9.11,49.46c.46.12.54-.18.81-.4,3.05-2.4,10.18-16.01,10.64-19.91.21-1.74-.1-3.17-.17-4.86,6-1.05,11.88-3.55,17.76-4.88.96-.22,1.86-.5,2.83-.22.41,1.59-1.65,2.37-2.67,3.33-7.26,6.83-14.64,17.05-19.51,25.79-.44.79-1.19,1.95-1.08,2.82,7.52,14.24,12.96,30.72,26.67,40.36,2.42,1.7,5.01,3.12,7.86,3.94.63.18,2.37.3,2.69.53.79.55.05,1.45-.66,1.77-11.63,5.09-26.59-.65-33.5-10.76-5.33-7.81-8.76-17.41-12.65-25.99l-.93.13-3.22,18.25c.4,2.08.16,4.53,1.72,6.21.59.63,2.78,1.41,2.2,2.51-.38.71-3.49,1.45-4.44,1.74-5.28,1.63-12.91,4.22-18.16,5.16-.38.07-.76.1-1.14.06-.64-.62,2.2-4.25,2.63-5.01,3.87-6.77,4.99-13.36,6.4-20.94,3.12-16.8,5.26-33.8,8.36-50.61.09-2.3.48-5.81-2.04-7.01-1.34-.64-3.56.06-3.31-2.3l21.7-10.33Z"/><path d="m219.85,29.98c-.16-1.67-1.11-5.18-1.92-6.65-3.45-6.2-14.38-4.52-13.33,4.48.63,5.37,11.21,15.28,14.56,20.56,13.9,21.89-.35,48.92-24.5,54.26-10.11,2.24-22.64,1.04-32.08-3.31-8.6-3.96-.96-3.37,2.99-3.8,13.24-1.45,35.22-3.64,41.2-17.5,7.93-18.42-12.49-26.45-15.24-42.22-2.44-13.97,7.73-23.9,21.49-23.1,3.79.22,5.65,1.42,9.44-.76.98-.57,3.79-3.92,4.33-2-.98,6.21-2.12,12.57-3.73,18.68-.36,1.36-1.19,5.04-1.74,6.04-.17.32-.42.52-.79.56l-.67-.41c-.11-1.56.15-3.29,0-4.83"/><path d="m160.17,27c9.73-9.41,22.25-8.12,26.1,5.74,4.05,14.6-3.42,42.2-16.04,51.36-7.56,5.49-16.88,4.76-21.73-3.68-8.21-14.28.3-42.44,11.67-53.43m10.3,3.44c-1.22.17-2.68,1.54-3.42,2.49-5.37,6.93-9.55,31.2-8.84,39.93.44,5.4,3.2,8.64,7.34,3.33,5.62-7.2,9.54-31.52,8.73-40.58-.18-2.02-1.2-5.54-3.81-5.18"/><path d="m64.85,156.03c-.51.27-.92.26-1.47.16-1.53-.28-4.44-1.45-6.03-2.03-6.69-2.47-14.11-5.61-9.26-14.22,4.85-8.61,28.47-19.81,37.83-23.82,15.11-6.48,31.31-11.63,47.48-14.7,2.41,1.94,4.51,4.34,7.39,5.77.11.47-.73.91-1.07,1.07-3.71,1.78-9.38,3.18-13.47,4.76-16.12,6.22-33.09,14.45-46.7,25.14-6.19,4.86-11.83,10.34-14.69,17.88"/><path d="m95.4,59.14c-2.12-1.74-5,1.42-6.04,3.05-3.68,5.76-5.71,17.59-6.89,24.47-.78,4.53-3.02,14.64.85,17.92.74.63,3.39,1.35,2.49,2.55l-26.05,9.91-1.27-.1c-.37-.53,2.7-4.38,3.22-5.22,8.69-14.04,8.31-32.88,12.2-48.64l15.04-14.98.63.09c-.05,2.18-1.08,4.3-1.31,6.47-.03.29-.24.97.23.9.52-1.59,1.5-3.03,2.41-4.43,3.11-4.77,7.37-11.31,14.01-9.44,2.36.66,2.47,1.83,2.63,4.07.47,6.78-2.88,14.36-6.76,19.8-.46.65-3.81,5.54-4.48,3.49.25-2.08.73-8.58-.91-9.93"/></svg>